# WaveFront *.obj file (generated by Autodesk ATF)

mtllib Room.mtl

g Room

v 6000.000000 2100.000000 3609.630045
v 6000.000000 0.000000 3609.630045
v 6020.000000 0.000000 3609.630045
v 6020.000000 2100.000000 3609.630045
v 5900.000000 0.000000 3609.630045
v 5900.000000 2100.000000 3609.630045
v 5880.000000 2100.000000 3609.630045
v 5880.000000 0.000000 3609.630045
v 6000.000000 2100.000000 2409.630045
v 6020.000000 2100.000000 2409.630045
v 5900.000000 2100.000000 2409.630045
v 5880.000000 2100.000000 2409.630045
v 6000.000000 0.000000 2409.630045
v 6020.000000 0.000000 2409.630045
v 5900.000000 0.000000 2409.630045
v 5880.000000 0.000000 2409.630045
v 5880.000000 0.000000 2509.630045
v 5880.000000 2000.000000 2509.630045
v 5880.000000 2000.000000 3509.630045
v 5880.000000 0.000000 3509.630045
v 6020.000000 0.000000 2509.630045
v 6020.000000 0.000000 3509.630045
v 6020.000000 2000.000000 3509.630045
v 6020.000000 2000.000000 2509.630045
v 6000.000000 0.000000 0.000000
v 6000.000000 2500.000000 0.000000
v 6000.000000 2500.000000 5000.000000
v 6000.000000 0.000000 5000.000000
v 0.000000 0.000000 5000.000000
v 0.000000 0.000000 0.000000
v 5900.000000 0.000000 100.000000
v 100.000000 0.000000 100.000000
v 100.000000 0.000000 4900.000000
v 5900.000000 0.000000 4900.000000
v 100.000000 2500.000000 100.000000
v 100.000000 2500.000000 4900.000000
v 5900.000000 2500.000000 4900.000000
v 5900.000000 2500.000000 100.000000
v 0.000000 2500.000000 5000.000000
v 0.000000 2500.000000 0.000000
vt 0.000000 0.000000 0.000000
vt 210.000000 0.000000 0.000000
vt 0.000000 2.000000 0.000000
vt 210.000000 2.000000 0.000000
vt 210.000000 -10.000000 0.000000
vt 0.000000 -10.000000 0.000000
vt 210.000000 -12.000000 0.000000
vt 0.000000 -12.000000 0.000000
vt 0.000000 0.000000 0.000000
vt 120.000000 0.000000 0.000000
vt 0.000000 2.000000 0.000000
vt 120.000000 2.000000 0.000000
vt 120.000000 -10.000000 0.000000
vt 0.000000 -10.000000 0.000000
vt 120.000000 -12.000000 0.000000
vt 0.000000 -12.000000 0.000000
vt -0.000000 0.000000 0.000000
vt 210.000000 0.000000 0.000000
vt 0.000000 2.000000 0.000000
vt 210.000000 2.000000 0.000000
vt 210.000000 -10.000000 0.000000
vt -0.000000 -10.000000 0.000000
vt 210.000000 -12.000000 0.000000
vt 0.000000 -12.000000 0.000000
vt -50.000000 -105.000000 0.000000
vt -50.000000 95.000000 0.000000
vt -60.000000 -105.000000 0.000000
vt -60.000000 105.000000 0.000000
vt 50.000000 95.000000 0.000000
vt 60.000000 105.000000 0.000000
vt 60.000000 -105.000000 0.000000
vt 50.000000 -105.000000 0.000000
vt 50.000000 -105.000000 0.000000
vt 60.000000 -105.000000 0.000000
vt 50.000000 95.000000 0.000000
vt 60.000000 105.000000 0.000000
vt -60.000000 105.000000 0.000000
vt -50.000000 95.000000 0.000000
vt -60.000000 -105.000000 0.000000
vt -50.000000 -105.000000 0.000000
vt 139.036996 0.000000 0.000000
vt 139.036996 210.000000 0.000000
vt -0.000000 0.000000 0.000000
vt -0.000000 250.000000 0.000000
vt 259.036996 210.000000 0.000000
vt 500.000000 250.000000 0.000000
vt 500.000000 0.000000 0.000000
vt 259.036996 0.000000 0.000000
vt -300.000000 -250.000000 0.000000
vt -290.000000 -240.000000 0.000000
vt -300.000000 -110.963004 0.000000
vt -290.000000 -110.963004 0.000000
vt -302.000000 -100.963004 0.000000
vt -288.000000 -100.963004 0.000000
vt -288.000000 -110.963004 0.000000
vt 300.000000 -250.000000 0.000000
vt 290.000000 -240.000000 0.000000
vt 290.000000 240.000000 0.000000
vt 300.000000 250.000000 0.000000
vt -300.000000 250.000000 0.000000
vt -290.000000 240.000000 0.000000
vt -300.000000 9.036996 0.000000
vt -290.000000 9.036996 0.000000
vt -288.000000 -0.963004 0.000000
vt -288.000000 9.036996 0.000000
vt -302.000000 9.036996 0.000000
vt -302.000000 -0.963004 0.000000
vt -302.000000 -110.963004 0.000000
vt -200.000000 -2.000000 0.000000
vt -0.000000 -2.000000 0.000000
vt -200.000000 12.000000 0.000000
vt -0.000000 12.000000 0.000000
vt -200.000000 -2.000000 0.000000
vt 0.000000 -2.000000 0.000000
vt -200.000000 12.000000 0.000000
vt -0.000000 12.000000 0.000000
vt -100.000000 -2.000000 0.000000
vt 0.000000 -2.000000 0.000000
vt -100.000000 12.000000 0.000000
vt -0.000000 12.000000 0.000000
vt 0.000000 0.000000 0.000000
vt 480.000000 0.000000 0.000000
vt 0.000000 250.000000 0.000000
vt 480.000000 250.000000 0.000000
vt 0.000000 0.000000 0.000000
vt 580.000000 0.000000 0.000000
vt 0.000000 250.000000 0.000000
vt 580.000000 250.000000 0.000000
vt 350.963004 0.000000 0.000000
vt 480.000000 0.000000 0.000000
vt 350.963004 210.000000 0.000000
vt 480.000000 250.000000 0.000000
vt 230.963004 210.000000 0.000000
vt 0.000000 250.000000 0.000000
vt 0.000000 0.000000 0.000000
vt 230.963004 0.000000 0.000000
vt 0.000000 0.000000 0.000000
vt 580.000000 0.000000 0.000000
vt 0.000000 250.000000 0.000000
vt 580.000000 250.000000 0.000000
vt 0.000000 0.000000 0.000000
vt 500.000000 0.000000 0.000000
vt 0.000000 250.000000 0.000000
vt 500.000000 250.000000 0.000000
vt -0.000000 0.000000 0.000000
vt 600.000000 0.000000 0.000000
vt -0.000000 250.000000 0.000000
vt 600.000000 250.000000 0.000000
vt 0.000000 0.000000 0.000000
vt 600.000000 0.000000 0.000000
vt 0.000000 250.000000 0.000000
vt 600.000000 250.000000 0.000000
vt -240.000000 290.000000 0.000000
vt -250.000000 -300.000000 0.000000
vt -240.000000 -290.000000 0.000000
vt 250.000000 -300.000000 0.000000
vt 240.000000 -290.000000 0.000000
vt 240.000000 290.000000 0.000000
vt 250.000000 300.000000 0.000000
vt -250.000000 300.000000 0.000000
vn 0.000000 0.000000 0.100000
vn 0.000000 0.000000 0.100000
vn 0.000000 0.000000 0.100000
vn 0.000000 0.000000 0.100000
vn 0.000000 0.000000 0.100000
vn 0.000000 0.000000 0.100000
vn 0.000000 0.000000 0.100000
vn 0.000000 0.000000 0.100000
vn 0.000000 0.100000 0.000000
vn 0.000000 0.100000 0.000000
vn 0.000000 0.100000 0.000000
vn 0.000000 0.100000 0.000000
vn 0.000000 0.100000 0.000000
vn 0.000000 0.100000 0.000000
vn 0.000000 0.100000 0.000000
vn 0.000000 0.100000 0.000000
vn 0.000000 0.000000 -0.100000
vn 0.000000 0.000000 -0.100000
vn 0.000000 0.000000 -0.100000
vn 0.000000 0.000000 -0.100000
vn 0.000000 0.000000 -0.100000
vn 0.000000 0.000000 -0.100000
vn 0.000000 0.000000 -0.100000
vn 0.000000 0.000000 -0.100000
vn -0.100000 0.000000 0.000000
vn -0.100000 0.000000 0.000000
vn -0.100000 0.000000 0.000000
vn -0.100000 0.000000 0.000000
vn -0.100000 0.000000 0.000000
vn -0.100000 0.000000 0.000000
vn -0.100000 0.000000 0.000000
vn -0.100000 0.000000 0.000000
vn 0.100000 0.000000 0.000000
vn 0.100000 0.000000 0.000000
vn 0.100000 0.000000 0.000000
vn 0.100000 0.000000 0.000000
vn 0.100000 0.000000 0.000000
vn 0.100000 0.000000 0.000000
vn 0.100000 0.000000 0.000000
vn 0.100000 0.000000 0.000000
vn 0.100000 0.000000 0.000000
vn 0.100000 0.000000 0.000000
vn 0.100000 0.000000 0.000000
vn 0.100000 0.000000 0.000000
vn 0.100000 0.000000 0.000000
vn 0.100000 0.000000 0.000000
vn 0.100000 0.000000 0.000000
vn 0.100000 0.000000 0.000000
vn 0.000000 -0.100000 0.000000
vn 0.000000 -0.100000 0.000000
vn 0.000000 -0.100000 0.000000
vn 0.000000 -0.100000 0.000000
vn 0.000000 -0.100000 0.000000
vn 0.000000 -0.100000 0.000000
vn 0.000000 -0.100000 0.000000
vn 0.000000 -0.100000 0.000000
vn 0.000000 -0.100000 0.000000
vn 0.000000 -0.100000 0.000000
vn 0.000000 -0.100000 0.000000
vn 0.000000 -0.100000 0.000000
vn 0.000000 -0.100000 0.000000
vn 0.000000 -0.100000 0.000000
vn 0.000000 -0.100000 0.000000
vn 0.000000 -0.100000 0.000000
vn 0.000000 -0.100000 0.000000
vn 0.000000 -0.100000 0.000000
vn 0.000000 -0.100000 0.000000
vn 0.000000 -0.100000 0.000000
vn 0.000000 0.000000 -0.100000
vn 0.000000 0.000000 -0.100000
vn 0.000000 0.000000 -0.100000
vn 0.000000 0.000000 -0.100000
vn 0.000000 0.000000 0.100000
vn 0.000000 0.000000 0.100000
vn 0.000000 0.000000 0.100000
vn 0.000000 0.000000 0.100000
vn 0.000000 -0.100000 0.000000
vn 0.000000 -0.100000 0.000000
vn 0.000000 -0.100000 0.000000
vn 0.000000 -0.100000 0.000000
vn 0.100000 -0.000000 0.000000
vn 0.100000 -0.000000 0.000000
vn 0.100000 -0.000000 0.000000
vn 0.100000 -0.000000 0.000000
vn 0.000000 0.000000 -0.100000
vn 0.000000 0.000000 -0.100000
vn 0.000000 0.000000 -0.100000
vn 0.000000 0.000000 -0.100000
vn -0.100000 0.000000 0.000000
vn -0.100000 0.000000 0.000000
vn -0.100000 0.000000 0.000000
vn -0.100000 0.000000 0.000000
vn -0.100000 0.000000 0.000000
vn -0.100000 0.000000 0.000000
vn -0.100000 0.000000 0.000000
vn -0.100000 0.000000 0.000000
vn 0.000000 0.000000 0.100000
vn 0.000000 0.000000 0.100000
vn 0.000000 0.000000 0.100000
vn 0.000000 0.000000 0.100000
vn -0.100000 0.000000 0.000000
vn -0.100000 0.000000 0.000000
vn -0.100000 0.000000 0.000000
vn -0.100000 0.000000 0.000000
vn 0.000000 0.000000 -0.100000
vn 0.000000 0.000000 -0.100000
vn 0.000000 0.000000 -0.100000
vn 0.000000 0.000000 -0.100000
vn 0.000000 -0.000000 0.100000
vn 0.000000 -0.000000 0.100000
vn 0.000000 -0.000000 0.100000
vn 0.000000 -0.000000 0.100000
vn 0.000000 0.100000 0.000000
vn 0.000000 0.100000 0.000000
vn 0.000000 0.100000 0.000000
vn 0.000000 0.100000 0.000000
vn 0.000000 0.100000 0.000000
vn 0.000000 0.100000 0.000000
vn 0.000000 0.100000 0.000000
vn 0.000000 0.100000 0.000000
usemtl Stahl_-_satiniert
f 1/1/1 2/2/2 4/3/3
f 4/3/3 2/2/2 3/4/4
f 5/5/5 6/6/6 8/7/7
f 8/7/7 6/6/6 7/8/8
f 9/9/9 1/10/10 10/11/11
f 10/11/11 1/10/10 4/12/12
f 6/13/13 11/14/14 7/15/15
f 7/15/15 11/14/14 12/16/16
f 13/17/17 9/18/18 14/19/19
f 14/19/19 9/18/18 10/20/20
f 11/21/21 15/22/22 12/23/23
f 12/23/23 15/22/22 16/24/24
f 17/25/25 18/26/26 16/27/27
f 16/27/27 18/26/26 12/28/28
f 12/28/28 18/26/26 19/29/29
f 12/28/28 19/29/29 7/30/30
f 7/30/30 19/29/29 8/31/31
f 8/31/31 19/29/29 20/32/32
f 21/33/33 14/34/34 24/35/35
f 24/35/35 14/34/34 10/36/36
f 24/35/35 10/36/36 4/37/37
f 24/35/35 4/37/37 23/38/38
f 23/38/38 4/37/37 3/39/39
f 23/38/38 3/39/39 22/40/40
f 2/41/41 1/42/42 28/43/43
f 28/43/43 1/42/42 27/44/44
f 27/44/44 1/42/42 9/45/45
f 27/44/44 9/45/45 26/46/46
f 26/46/46 9/45/45 25/47/47
f 25/47/47 9/45/45 13/48/48
f 28/49/49 34/50/50 2/51/51
f 2/51/51 34/50/50 5/52/52
f 2/51/51 5/52/52 22/53/53
f 22/53/53 5/52/52 20/54/54
f 20/54/54 5/52/52 8/55/55
f 28/49/49 29/56/56 34/50/50
f 34/50/50 29/56/56 33/57/57
f 33/57/57 29/56/56 32/58/58
f 32/58/58 29/56/56 30/59/59
f 32/58/58 30/59/59 25/60/60
f 32/58/58 25/60/60 31/61/61
f 31/61/61 25/60/60 13/62/62
f 31/61/61 13/62/62 15/63/63
f 15/63/63 13/62/62 17/64/64
f 15/63/63 17/64/64 16/65/65
f 14/66/66 21/67/67 13/62/62
f 13/62/62 21/67/67 17/64/64
f 22/53/53 3/68/68 2/51/51
f 23/69/69 22/70/70 19/71/71
f 19/71/71 22/70/70 20/72/72
f 21/73/73 24/74/74 17/75/75
f 17/75/75 24/74/74 18/76/76
f 24/77/77 23/78/78 18/79/79
f 18/79/79 23/78/78 19/80/80
f 33/81/81 32/82/82 36/83/83
f 36/83/83 32/82/82 35/84/84
f 34/85/85 33/86/86 37/87/87
f 37/87/87 33/86/86 36/88/88
f 5/89/89 34/90/90 6/91/91
f 6/91/91 34/90/90 37/92/92
f 6/91/91 37/92/92 11/93/93
f 11/93/93 37/92/92 38/94/94
f 11/93/93 38/94/94 31/95/95
f 31/95/95 15/96/96 11/93/93
f 32/97/97 31/98/98 35/99/99
f 35/99/99 31/98/98 38/100/100
f 30/101/101 29/102/102 40/103/103
f 40/103/103 29/102/102 39/104/104
f 25/105/105 30/106/106 26/107/107
f 26/107/107 30/106/106 40/108/108
f 29/109/109 28/110/110 39/111/111
f 39/111/111 28/110/110 27/112/112
f 38/113/113 40/114/114 35/115/115
f 35/115/115 40/114/114 39/116/116
f 35/115/115 39/116/116 36/117/117
f 36/117/117 39/116/116 37/118/118
f 37/118/118 39/116/116 27/119/119
f 37/118/118 27/119/119 26/120/120
f 40/114/114 38/113/113 26/120/120
f 26/120/120 38/113/113 37/118/118
# 40 vertices
# 120 texture params
# 120 normals
# 80 facets

# 1 groups
