# WaveFront *.obj file (generated by Autodesk ATF)

mtllib working area.mtl

g working area

v 1900.000000 850.000000 800.000000
v 2600.000000 850.000000 800.000000
v 2600.000000 860.000000 800.000000
v 1900.000000 860.000000 800.000000
v 1900.000000 850.000000 200.000000
v 1900.000000 860.000000 200.000000
v 2600.000000 850.000000 200.000000
v 2600.000000 860.000000 200.000000
v 1000.000000 850.000000 900.000000
v 4300.000000 850.000000 900.000000
v 4300.000000 850.000000 100.000000
v 1000.000000 850.000000 100.000000
v 4300.000000 800.000000 900.000000
v 1000.000000 800.000000 900.000000
v 1000.000000 800.000000 100.000000
v 4300.000000 800.000000 100.000000
vt 0.000000 0.000000 0.000000
vt 70.000000 -0.000000 0.000000
vt -0.000000 1.000000 0.000000
vt 70.000000 1.000000 0.000000
vt 0.000000 0.000000 0.000000
vt 60.000000 0.000000 0.000000
vt 0.000000 1.000000 0.000000
vt 60.000000 1.000000 0.000000
vt 0.000000 0.000000 0.000000
vt 70.000000 0.000000 0.000000
vt 0.000000 1.000000 0.000000
vt 70.000000 1.000000 0.000000
vt 0.000000 0.000000 0.000000
vt 60.000000 0.000000 0.000000
vt 0.000000 1.000000 0.000000
vt 60.000000 1.000000 0.000000
vt 30.000000 35.000000 0.000000
vt -30.000000 35.000000 0.000000
vt 30.000000 -35.000000 0.000000
vt -30.000000 -35.000000 0.000000
vt 30.000000 -75.000000 0.000000
vt 40.000000 -165.000000 0.000000
vt 30.000000 -5.000000 0.000000
vt 40.000000 165.000000 0.000000
vt -40.000000 165.000000 0.000000
vt -30.000000 -75.000000 0.000000
vt -40.000000 -165.000000 0.000000
vt -30.000000 -5.000000 0.000000
vt -40.000000 -165.000000 0.000000
vt 40.000000 -165.000000 0.000000
vt -40.000000 165.000000 0.000000
vt 40.000000 165.000000 0.000000
vt -2.500000 -40.000000 0.000000
vt 2.500000 -40.000000 0.000000
vt -2.500000 40.000000 0.000000
vt 2.500000 40.000000 0.000000
vt 2.500000 165.000000 0.000000
vt -2.500000 165.000000 0.000000
vt 2.500000 -165.000000 0.000000
vt -2.500000 -165.000000 0.000000
vt 2.500000 40.000000 0.000000
vt -2.500000 40.000000 0.000000
vt 2.500000 -40.000000 0.000000
vt -2.500000 -40.000000 0.000000
vt -2.500000 -165.000000 0.000000
vt 2.500000 -165.000000 0.000000
vt -2.500000 165.000000 0.000000
vt 2.500000 165.000000 0.000000
vn 0.000000 0.000000 0.100000
vn 0.000000 0.000000 0.100000
vn 0.000000 0.000000 0.100000
vn 0.000000 0.000000 0.100000
vn -0.100000 0.000000 0.000000
vn -0.100000 0.000000 0.000000
vn -0.100000 0.000000 0.000000
vn -0.100000 0.000000 0.000000
vn 0.000000 0.000000 -0.100000
vn 0.000000 0.000000 -0.100000
vn 0.000000 0.000000 -0.100000
vn 0.000000 0.000000 -0.100000
vn 0.100000 -0.000000 0.000000
vn 0.100000 -0.000000 0.000000
vn 0.100000 -0.000000 0.000000
vn 0.100000 -0.000000 0.000000
vn 0.000000 0.100000 0.000000
vn 0.000000 0.100000 0.000000
vn 0.000000 0.100000 0.000000
vn 0.000000 0.100000 0.000000
vn 0.000000 0.100000 0.000000
vn 0.000000 0.100000 0.000000
vn 0.000000 0.100000 0.000000
vn 0.000000 0.100000 0.000000
vn 0.000000 0.100000 0.000000
vn 0.000000 0.100000 0.000000
vn 0.000000 0.100000 0.000000
vn 0.000000 0.100000 0.000000
vn -0.000000 -0.100000 0.000000
vn -0.000000 -0.100000 0.000000
vn -0.000000 -0.100000 0.000000
vn -0.000000 -0.100000 0.000000
vn -0.100000 0.000000 -0.000000
vn -0.100000 0.000000 -0.000000
vn -0.100000 0.000000 -0.000000
vn -0.100000 0.000000 -0.000000
vn 0.000000 0.000000 -0.100000
vn 0.000000 0.000000 -0.100000
vn 0.000000 0.000000 -0.100000
vn 0.000000 0.000000 -0.100000
vn 0.100000 -0.000000 0.000000
vn 0.100000 -0.000000 0.000000
vn 0.100000 -0.000000 0.000000
vn 0.100000 -0.000000 0.000000
vn 0.000000 0.000000 0.100000
vn 0.000000 0.000000 0.100000
vn 0.000000 0.000000 0.100000
vn 0.000000 0.000000 0.100000
usemtl Stahl_-_satiniert
f 1/1/1 2/2/2 4/3/3
f 4/3/3 2/2/2 3/4/4
f 5/5/5 1/6/6 6/7/7
f 6/7/7 1/6/6 4/8/8
f 7/9/9 5/10/10 8/11/11
f 8/11/11 5/10/10 6/12/12
f 2/13/13 7/14/14 3/15/15
f 3/15/15 7/14/14 8/16/16
f 3/17/17 8/18/18 4/19/19
f 4/19/19 8/18/18 6/20/20
f 1/21/21 9/22/22 2/23/23
f 2/23/23 9/22/22 10/24/24
f 2/23/23 10/24/24 11/25/25
f 1/21/21 5/26/26 9/22/22
f 9/22/22 5/26/26 12/27/27
f 12/27/27 5/26/26 7/28/28
f 12/27/27 7/28/28 11/25/25
f 11/25/25 7/28/28 2/23/23
f 14/29/29 15/30/30 13/31/31
f 13/31/31 15/30/30 16/32/32
f 12/33/33 15/34/34 9/35/35
f 9/35/35 15/34/34 14/36/36
f 11/37/37 16/38/38 12/39/39
f 12/39/39 16/38/38 15/40/40
f 10/41/41 13/42/42 11/43/43
f 11/43/43 13/42/42 16/44/44
f 9/45/45 14/46/46 10/47/47
f 10/47/47 14/46/46 13/48/48
# 16 vertices
# 48 texture params
# 48 normals
# 28 facets

# 1 groups
