# Blender v2.90.0 OBJ File: 'SM_box_juice.blend'
# www.blender.org
mtllib SM_box_juice.mtl
o SM_box_juice_Cylinder.001
v 0.000000 1.117455 0.049726
v 0.010242 1.116742 0.050439
v 0.020091 1.114630 0.052551
v 0.029167 1.111199 0.055982
v 0.037123 1.106582 0.060599
v 0.043652 1.100957 0.066224
v 0.048504 1.094539 0.072642
v 0.051491 1.087575 0.079606
v 0.052500 1.080332 0.086849
v 0.051491 1.073090 0.094091
v 0.048504 1.066126 0.101055
v 0.043652 1.059708 0.107473
v 0.037123 1.054082 0.113099
v 0.029167 1.049466 0.117715
v 0.020091 1.046035 0.121146
v 0.010242 1.043923 0.123259
v -0.000000 1.043209 0.123972
v -0.010242 1.043923 0.123259
v -0.020091 1.046035 0.121146
v -0.029167 1.049466 0.117715
v -0.037123 1.054082 0.113099
v -0.043652 1.059708 0.107473
v -0.048504 1.066126 0.101055
v -0.051491 1.073090 0.094091
v -0.052500 1.080332 0.086849
v -0.051491 1.087575 0.079606
v -0.048504 1.094539 0.072642
v -0.043652 1.100957 0.066224
v -0.037123 1.106582 0.060599
v -0.029167 1.111199 0.055982
v -0.020091 1.114630 0.052551
v -0.010242 1.116742 0.050439
v 0.000000 1.136901 0.143417
v 0.000000 1.172380 0.104650
v 0.000000 1.171856 0.108462
v 0.009644 1.171184 0.109134
v 0.010242 1.171667 0.105363
v 0.018917 1.169195 0.111123
v 0.020091 1.169554 0.107476
v 0.027464 1.165965 0.114353
v 0.029167 1.166124 0.110906
v 0.034955 1.161618 0.118701
v 0.037123 1.161507 0.115523
v 0.041102 1.156321 0.123997
v 0.043652 1.155881 0.121149
v 0.045671 1.150277 0.130041
v 0.048504 1.149463 0.127567
v 0.048484 1.143720 0.136598
v 0.051491 1.142499 0.134531
v 0.049434 1.136901 0.143417
v 0.052500 1.135257 0.141773
v 0.048484 1.130082 0.150237
v 0.051491 1.128014 0.149016
v 0.045671 1.123524 0.156794
v 0.048504 1.121050 0.155980
v 0.041102 1.117481 0.162837
v 0.043652 1.114632 0.162398
v 0.034955 1.112184 0.168134
v 0.037123 1.109007 0.168023
v 0.027464 1.107837 0.172481
v 0.029167 1.104390 0.172640
v 0.018917 1.104607 0.175711
v 0.020091 1.100959 0.176070
v 0.009644 1.102618 0.177700
v 0.010242 1.098847 0.178183
v -0.000000 1.101946 0.178372
v -0.000000 1.098134 0.178896
v -0.009644 1.102618 0.177700
v -0.010242 1.098847 0.178183
v -0.018917 1.104607 0.175711
v -0.020091 1.100960 0.176070
v -0.027464 1.107837 0.172481
v -0.029167 1.104390 0.172640
v -0.034955 1.112184 0.168134
v -0.037123 1.109007 0.168023
v -0.041102 1.117481 0.162837
v -0.043652 1.114632 0.162398
v -0.045671 1.123524 0.156794
v -0.048504 1.121050 0.155980
v -0.048484 1.130082 0.150237
v -0.051491 1.128014 0.149015
v -0.049434 1.136901 0.143417
v -0.052500 1.135257 0.141773
v -0.048484 1.143720 0.136598
v -0.051491 1.142499 0.134531
v -0.045671 1.150277 0.130041
v -0.048504 1.149463 0.127567
v -0.041102 1.156321 0.123997
v -0.043652 1.155881 0.121149
v -0.034955 1.161618 0.118700
v -0.037123 1.161507 0.115523
v -0.027464 1.165965 0.114353
v -0.029167 1.166124 0.110906
v -0.018917 1.169195 0.111123
v -0.020091 1.169554 0.107476
v -0.009644 1.171184 0.109134
v -0.010242 1.171667 0.105363
v 0.200000 0.000000 0.200000
v 0.200000 -0.000000 -0.200000
v 0.200000 0.993740 0.000000
v 0.200000 1.275580 0.001973
v 0.200000 1.275580 -0.001076
v 0.200000 0.993740 -0.200000
v 0.200000 1.185528 0.000446
v 0.200000 0.993740 0.200000
v 0.200000 1.189534 -0.001076
v 0.200000 0.997747 -0.190223
v 0.200000 1.189534 0.001973
v 0.200000 0.997747 0.190254
v 0.028132 1.163933 0.000446
v 0.200000 0.997747 0.000088
v -0.200000 0.000000 0.200000
v -0.200000 -0.000000 -0.200000
v -0.200000 0.993740 0.000000
v -0.200000 1.275580 0.001973
v -0.200000 1.275580 -0.001076
v -0.200000 0.993740 -0.200000
v -0.200000 1.185528 0.000446
v -0.200000 0.993740 0.200000
v -0.200000 1.189534 -0.001076
v -0.200000 0.997747 -0.190223
v -0.200000 1.189534 0.001973
v -0.200000 0.997747 0.190254
v -0.028132 1.163933 0.000446
v -0.200000 0.997747 0.000088
vt 0.024970 0.946463
vt 0.024970 0.997657
vt 0.018187 0.997657
vt 0.018187 0.946463
vt 0.091341 0.883278
vt 0.092585 0.889535
vt 0.060200 0.892718
vt 0.088901 0.877384
vt 0.085358 0.872079
vt 0.080848 0.867568
vt 0.075545 0.864023
vt 0.069651 0.861580
vt 0.063395 0.860335
vt 0.057016 0.860334
vt 0.050759 0.861577
vt 0.044865 0.864017
vt 0.039560 0.867560
vt 0.035049 0.872070
vt 0.031504 0.877374
vt 0.029062 0.883267
vt 0.027816 0.889523
vt 0.027815 0.895902
vt 0.029058 0.902159
vt 0.031498 0.908053
vt 0.035042 0.913358
vt 0.039552 0.917870
vt 0.044855 0.921414
vt 0.050748 0.923857
vt 0.057005 0.925102
vt 0.063384 0.925103
vt 0.069641 0.923860
vt 0.075535 0.921420
vt 0.080839 0.917877
vt 0.085351 0.913367
vt 0.088896 0.908063
vt 0.091338 0.902170
vt 0.092584 0.895914
vt 0.167416 0.946463
vt 0.167416 0.997657
vt 0.160633 0.997657
vt 0.160633 0.946463
vt 0.106368 0.946463
vt 0.106368 0.997657
vt 0.099584 0.997657
vt 0.099584 0.946463
vt 0.045319 0.946463
vt 0.045319 0.997657
vt 0.038536 0.997657
vt 0.038536 0.946463
vt 0.194548 0.946463
vt 0.194548 0.997657
vt 0.187765 0.997657
vt 0.187765 0.946463
vt 0.133500 0.946463
vt 0.133500 0.997657
vt 0.126717 0.997657
vt 0.126717 0.946463
vt 0.072452 0.946463
vt 0.072452 0.997657
vt 0.065669 0.997657
vt 0.065669 0.946463
vt 0.221681 0.946463
vt 0.221681 0.997657
vt 0.214898 0.997657
vt 0.214898 0.946463
vt 0.153850 0.997657
vt 0.153849 0.946463
vt 0.092801 0.997657
vt 0.092801 0.946463
vt 0.031753 0.997657
vt 0.031753 0.946463
vt 0.180982 0.997657
vt 0.180982 0.946463
vt 0.119934 0.997657
vt 0.119934 0.946463
vt 0.058885 0.997657
vt 0.058885 0.946463
vt 0.208115 0.997657
vt 0.208115 0.946463
vt 0.147066 0.997657
vt 0.147066 0.946463
vt 0.086018 0.997657
vt 0.086018 0.946463
vt 0.174199 0.997657
vt 0.174199 0.946463
vt 0.113151 0.997657
vt 0.113151 0.946463
vt 0.052102 0.997657
vt 0.052102 0.946463
vt 0.201332 0.997657
vt 0.201331 0.946463
vt 0.140283 0.997657
vt 0.140283 0.946463
vt 0.079235 0.997657
vt 0.079235 0.946463
vt 0.011403 0.997657
vt 0.011404 0.946463
vt 0.004620 0.997657
vt 0.004620 0.946463
vt 0.095134 0.889278
vt 0.095134 0.896159
vt 0.093791 0.882529
vt 0.091158 0.876171
vt 0.087335 0.870450
vt 0.082469 0.865584
vt 0.076747 0.861761
vt 0.070390 0.859127
vt 0.063640 0.857785
vt 0.056759 0.857785
vt 0.050010 0.859127
vt 0.043652 0.861761
vt 0.037931 0.865584
vt 0.033065 0.870450
vt 0.029242 0.876171
vt 0.026609 0.882529
vt 0.025266 0.889278
vt 0.025266 0.896159
vt 0.026609 0.902908
vt 0.029242 0.909266
vt 0.033065 0.914987
vt 0.037931 0.919854
vt 0.043652 0.923676
vt 0.050010 0.926310
vt 0.056759 0.927652
vt 0.063640 0.927652
vt 0.070390 0.926310
vt 0.076747 0.923676
vt 0.082469 0.919853
vt 0.087335 0.914987
vt 0.091158 0.909266
vt 0.093791 0.902908
vt 0.254005 0.763253
vt 0.019767 0.763334
vt 0.019766 0.761495
vt 0.254004 0.761414
vt 0.257445 0.007719
vt 0.257445 0.589649
vt 0.016290 0.589649
vt 0.016289 0.007719
vt 0.253986 0.709578
vt 0.019748 0.709578
vt 0.739755 0.589649
vt 0.498600 0.589649
vt 0.498600 0.007719
vt 0.739755 0.007719
vt 0.378022 0.589649
vt 0.129375 0.890262
vt 0.129375 0.942139
vt 0.127589 0.942139
vt 0.127589 0.890262
vt 0.991642 0.747264
vt 0.991642 0.988419
vt 0.757404 0.988419
vt 0.757403 0.747264
vt 0.612819 0.885377
vt 0.723970 0.885377
vt 0.612819 0.988994
vt 0.128484 0.887847
vt 0.240139 0.774636
vt 0.245864 0.772221
vt 0.017332 0.774636
vt 0.011625 0.772221
vt 0.860333 0.589649
vt 0.980910 0.589649
vt 0.975354 0.591284
vt 0.860279 0.591284
vt 0.860063 0.731616
vt 0.501163 0.885377
vt 0.736297 0.760914
vt 0.502058 0.760914
vt 0.502058 0.709037
vt 0.736297 0.709037
vt 0.745293 0.591284
vt 0.374906 0.891267
vt 0.376716 0.891267
vt 0.376716 0.943839
vt 0.374906 0.943839
vt 0.613596 0.770863
vt 0.613596 0.874480
vt 0.502445 0.770863
vt 0.375810 0.888819
vt 0.256854 0.771641
vt 0.262656 0.774089
vt 0.488452 0.774089
vt 0.494236 0.771641
vt 0.490563 0.591950
vt 0.378075 0.591950
vt 0.265500 0.591950
vt 0.378286 0.706494
vt 0.725251 0.770863
vt 0.980910 0.007719
vn -0.1951 0.6935 -0.6935
vn -0.1757 0.9317 -0.3178
vn 0.0000 0.9440 -0.3300
vn 0.0000 0.7071 -0.7071
vn 0.1287 0.8857 0.4461
vn 0.0656 0.8992 0.4326
vn -0.0000 0.7071 0.7071
vn 0.1869 0.8637 0.4681
vn 0.2379 0.8341 0.4977
vn 0.2797 0.7980 0.5338
vn 0.3108 0.7569 0.5749
vn 0.3299 0.7123 0.6195
vn 0.3364 0.6659 0.6659
vn 0.3299 0.6195 0.7123
vn 0.3108 0.5749 0.7569
vn 0.2797 0.5337 0.7981
vn 0.2379 0.4977 0.8341
vn 0.1869 0.4681 0.8637
vn 0.1287 0.4461 0.8857
vn 0.0656 0.4326 0.8992
vn 0.0000 0.4280 0.9038
vn -0.0656 0.4326 0.8992
vn -0.1287 0.4461 0.8857
vn -0.1869 0.4681 0.8637
vn -0.2379 0.4977 0.8341
vn -0.2797 0.5337 0.7981
vn -0.3108 0.5749 0.7569
vn -0.3299 0.6195 0.7123
vn -0.3364 0.6659 0.6659
vn -0.3299 0.7123 0.6195
vn -0.3108 0.7569 0.5749
vn -0.2797 0.7980 0.5338
vn -0.2379 0.8341 0.4977
vn -0.1869 0.8637 0.4681
vn -0.1287 0.8857 0.4461
vn -0.0656 0.8992 0.4326
vn 0.0000 0.9038 0.4280
vn 0.9239 -0.2706 0.2706
vn 0.8323 0.0632 0.5508
vn 0.7490 -0.0469 0.6609
vn 0.8315 -0.3928 0.3928
vn -0.5556 -0.5879 0.5879
vn -0.5005 -0.2226 0.8366
vn -0.6370 -0.1434 0.7574
vn -0.7071 -0.5000 0.5000
vn -0.7071 0.5000 -0.5000
vn -0.6370 0.7574 -0.1434
vn -0.5005 0.8366 -0.2226
vn -0.5556 0.5879 -0.5879
vn 0.9239 0.2706 -0.2706
vn 0.8323 0.5508 0.0632
vn 0.8835 0.4313 0.1827
vn 0.9808 0.1379 -0.1379
vn 0.1951 -0.6935 0.6935
vn 0.1757 -0.3178 0.9317
vn 0.0000 -0.3300 0.9440
vn 0.0000 -0.7071 0.7071
vn -1.0000 0.0000 -0.0000
vn -0.9008 0.3070 0.3070
vn -0.8835 0.4313 0.1827
vn -0.9808 0.1380 -0.1379
vn 0.3827 0.6533 -0.6533
vn 0.3447 0.8955 -0.2815
vn 0.5005 0.8366 -0.2226
vn 0.5556 0.5879 -0.5879
vn 0.6370 -0.1434 0.7574
vn 0.7071 -0.5000 0.5000
vn -0.7490 -0.0469 0.6609
vn -0.8315 -0.3928 0.3928
vn -0.3447 0.8955 -0.2815
vn -0.3827 0.6533 -0.6533
vn 0.9008 0.3070 0.3070
vn 1.0000 -0.0000 0.0000
vn -0.1757 -0.3178 0.9317
vn -0.1951 -0.6935 0.6935
vn -0.8323 0.5508 0.0632
vn -0.9239 0.2706 -0.2706
vn 0.6370 0.7574 -0.1434
vn 0.7071 0.5000 -0.5000
vn 0.5005 -0.2226 0.8366
vn 0.5556 -0.5879 0.5879
vn -0.8323 0.0632 0.5508
vn -0.9239 -0.2706 0.2706
vn 0.8835 0.1827 0.4313
vn 0.9808 -0.1379 0.1379
vn -0.3447 -0.2815 0.8955
vn -0.3827 -0.6533 0.6533
vn -0.7490 0.6609 -0.0469
vn -0.8315 0.3928 -0.3928
vn 0.7490 0.6609 -0.0469
vn 0.8315 0.3928 -0.3928
vn 0.3447 -0.2815 0.8955
vn 0.3827 -0.6533 0.6533
vn -0.8835 0.1827 0.4313
vn -0.9808 -0.1379 0.1379
vn 0.1757 0.9317 -0.3178
vn 0.1951 0.6935 -0.6935
vn 0.0000 1.0000 0.0000
vn 0.0000 -0.0000 -1.0000
vn 0.0000 0.7127 -0.7015
vn 0.0000 0.0000 1.0000
vn 0.0000 -1.0000 0.0000
vn 0.0890 -0.7081 -0.7005
vn 0.6951 0.7189 0.0000
vn 0.0892 -0.7096 0.6989
vn -0.0890 -0.7081 -0.7005
vn -0.6951 0.7189 0.0000
vn -0.0892 -0.7096 0.6989
vn 0.0000 0.7111 0.7031
usemtl None
s 1
f 32/1/1 97/2/2 34/3/3 1/4/4
f 38/5/5 36/6/6 33/7/7
f 40/8/8 38/5/5 33/7/7
f 42/9/9 40/8/8 33/7/7
f 44/10/10 42/9/9 33/7/7
f 46/11/11 44/10/10 33/7/7
f 48/12/12 46/11/11 33/7/7
f 50/13/13 48/12/12 33/7/7
f 52/14/14 50/13/13 33/7/7
f 54/15/15 52/14/14 33/7/7
f 56/16/16 54/15/15 33/7/7
f 58/17/17 56/16/16 33/7/7
f 60/18/18 58/17/17 33/7/7
f 62/19/19 60/18/18 33/7/7
f 64/20/20 62/19/19 33/7/7
f 66/21/21 64/20/20 33/7/7
f 68/22/22 66/21/21 33/7/7
f 70/23/23 68/22/22 33/7/7
f 72/24/24 70/23/23 33/7/7
f 74/25/25 72/24/24 33/7/7
f 76/26/26 74/25/25 33/7/7
f 78/27/27 76/26/26 33/7/7
f 80/28/28 78/27/27 33/7/7
f 82/29/29 80/28/28 33/7/7
f 84/30/30 82/29/29 33/7/7
f 86/31/31 84/30/30 33/7/7
f 88/32/32 86/31/31 33/7/7
f 90/33/33 88/32/32 33/7/7
f 92/34/34 90/33/33 33/7/7
f 94/35/35 92/34/34 33/7/7
f 96/36/36 94/35/35 33/7/7
f 35/37/37 96/36/36 33/7/7
f 11/38/38 55/39/39 57/40/40 12/41/41
f 20/42/42 73/43/43 75/44/44 21/45/45
f 29/46/46 91/47/47 93/48/48 30/49/49
f 7/50/50 47/51/51 49/52/52 8/53/53
f 16/54/54 65/55/55 67/56/56 17/57/57
f 25/58/58 83/59/59 85/60/60 26/61/61
f 3/62/62 39/63/63 41/64/64 4/65/65
f 12/41/41 57/40/40 59/66/66 13/67/67
f 21/45/45 75/44/44 77/68/68 22/69/69
f 30/49/49 93/48/48 95/70/70 31/71/71
f 8/53/53 49/52/52 51/72/72 9/73/73
f 17/57/57 67/56/56 69/74/74 18/75/75
f 26/61/61 85/60/60 87/76/76 27/77/77
f 4/65/65 41/64/64 43/78/78 5/79/79
f 13/67/67 59/66/66 61/80/80 14/81/81
f 22/69/69 77/68/68 79/82/82 23/83/83
f 31/71/71 95/70/70 97/2/2 32/1/1
f 9/73/73 51/72/72 53/84/84 10/85/85
f 18/75/75 69/74/74 71/86/86 19/87/87
f 27/77/77 87/76/76 89/88/88 28/89/89
f 5/79/79 43/78/78 45/90/90 6/91/91
f 14/81/81 61/80/80 63/92/92 15/93/93
f 23/83/83 79/82/82 81/94/94 24/95/95
f 10/85/85 53/84/84 55/39/39 11/38/38
f 19/87/87 71/86/86 73/43/43 20/42/42
f 28/89/89 89/88/88 91/47/47 29/46/46
f 6/91/91 45/90/90 47/51/51 7/50/50
f 15/93/93 63/92/92 65/55/55 16/54/54
f 24/95/95 81/94/94 83/59/59 25/58/58
f 1/4/4 34/3/3 37/96/96 2/97/97
f 2/97/97 37/96/96 39/98/63 3/99/62
f 37/100/96 34/101/3 35/37/37 36/6/6
f 39/102/63 37/100/96 36/6/6 38/5/5
f 41/103/64 39/102/63 38/5/5 40/8/8
f 43/104/78 41/103/64 40/8/8 42/9/9
f 45/105/90 43/104/78 42/9/9 44/10/10
f 47/106/51 45/105/90 44/10/10 46/11/11
f 49/107/52 47/106/51 46/11/11 48/12/12
f 51/108/72 49/107/52 48/12/12 50/13/13
f 53/109/84 51/108/72 50/13/13 52/14/14
f 55/110/39 53/109/84 52/14/14 54/15/15
f 57/111/40 55/110/39 54/15/15 56/16/16
f 59/112/66 57/111/40 56/16/16 58/17/17
f 61/113/80 59/112/66 58/17/17 60/18/18
f 63/114/92 61/113/80 60/18/18 62/19/19
f 65/115/55 63/114/92 62/19/19 64/20/20
f 67/116/56 65/115/55 64/20/20 66/21/21
f 69/117/74 67/116/56 66/21/21 68/22/22
f 71/118/86 69/117/74 68/22/22 70/23/23
f 73/119/43 71/118/86 70/23/23 72/24/24
f 75/120/44 73/119/43 72/24/24 74/25/25
f 77/121/68 75/120/44 74/25/25 76/26/26
f 79/122/82 77/121/68 76/26/26 78/27/27
f 81/123/94 79/122/82 78/27/27 80/28/28
f 83/124/59 81/123/94 80/28/28 82/29/29
f 85/125/60 83/124/59 82/29/29 84/30/30
f 87/126/76 85/125/60 84/30/30 86/31/31
f 89/127/88 87/126/76 86/31/31 88/32/32
f 91/128/47 89/127/88 88/32/32 90/33/33
f 93/129/48 91/128/47 90/33/33 92/34/34
f 95/130/70 93/129/48 92/34/34 94/35/35
f 97/131/2 95/130/70 94/35/35 96/36/36
f 34/101/3 97/131/2 96/36/36 35/37/37
f 36/6/6 35/37/37 33/7/7
f 115/132/98 101/133/98 102/134/98 116/135/98
f 113/136/99 117/137/99 103/138/99 99/139/99
f 117/137/100 120/140/100 106/141/100 103/138/100
f 120/140/99 116/135/99 102/134/99 106/141/99
f 105/142/101 119/143/101 112/144/101 98/145/101
f 112/144/58 114/146/58 113/136/58
f 106/147/73 102/148/73 101/149/73 108/150/73
f 112/151/102 113/152/102 99/153/102 98/154/102
f 104/155/103 109/156/103 110/157/103
f 104/158/73 107/159/73 103/160/73 106/147/73
f 109/161/73 104/158/73 108/150/73 105/162/73
f 104/158/73 106/147/73 108/150/73
f 100/163/73 103/164/73 107/165/73 111/166/73
f 107/165/104 110/167/104 111/166/104
f 107/168/105 104/155/105 110/157/105
f 101/169/101 115/170/101 122/171/101 108/172/101
f 111/166/104 110/167/104 109/173/104
f 120/174/58 122/175/58 115/176/58 116/177/58
f 118/178/106 124/179/106 123/180/106
f 118/181/58 120/174/58 117/182/58 121/183/58
f 123/184/58 119/185/58 122/175/58 118/181/58
f 118/181/58 122/175/58 120/174/58
f 119/143/58 123/186/58 125/187/58 114/146/58
f 121/188/107 125/187/107 124/189/107
f 121/190/108 124/179/108 118/178/108
f 125/187/107 123/186/107 124/189/107
f 108/172/109 122/171/109 119/143/109 105/142/109
f 114/146/58 125/187/58 121/188/58 117/137/58
f 105/142/73 100/163/73 111/166/73 109/173/73
f 98/145/73 99/191/73 100/163/73
f 100/163/73 105/142/73 98/145/73
f 100/163/73 99/191/73 103/164/73
f 113/136/58 114/146/58 117/137/58
f 114/146/58 112/144/58 119/143/58
