# Blender v2.82 (sub 7) OBJ File: ''
# www.blender.org
mtllib wooden stairs 2 obj.mtl
o wooden_stairs_2_Mesh
v -0.162292 0.118621 0.055923
v 0.048043 0.118621 0.055923
v -0.162292 0.108313 0.055178
v 0.048043 0.108313 0.055178
v -0.162292 0.111858 0.048108
v 0.048043 0.111858 0.048108
v -0.162292 0.119366 0.045615
v 0.048043 0.119366 0.045615
v -0.162292 0.126436 0.049161
v 0.048043 0.126436 0.049161
v -0.162292 0.128929 0.056668
v 0.048043 0.128929 0.056668
v -0.162292 0.125383 0.063739
v 0.048043 0.125383 0.063739
v -0.162292 0.117876 0.066231
v 0.048043 0.117876 0.066231
v -0.162292 0.110805 0.062685
v 0.048043 0.110805 0.062685
v -0.162292 0.268751 0.066772
v 0.048043 0.268751 0.066772
v -0.162292 0.258442 0.066028
v 0.048043 0.258442 0.066028
v -0.162292 0.261988 0.058957
v 0.048043 0.261988 0.058957
v -0.162292 0.269496 0.056464
v 0.048043 0.269496 0.056464
v -0.162292 0.276566 0.060011
v 0.048043 0.276566 0.060011
v -0.162292 0.279059 0.067517
v 0.048043 0.279059 0.067517
v -0.162292 0.275513 0.074588
v 0.048043 0.275513 0.074588
v -0.162292 0.268006 0.077081
v 0.048043 0.268006 0.077081
v -0.162292 0.260935 0.073535
v 0.048043 0.260935 0.073535
v -0.162292 0.900200 0.112405
v 0.048043 0.900201 0.112405
v -0.162292 0.889892 0.111660
v 0.048043 0.889893 0.111660
v -0.162292 0.893438 0.104589
v 0.048043 0.893439 0.104589
v -0.162292 0.900945 0.102097
v 0.048043 0.900945 0.102097
v -0.162292 0.908016 0.105643
v 0.048043 0.908016 0.105643
v -0.162292 0.910509 0.113150
v 0.048043 0.910509 0.113150
v -0.162292 0.906963 0.120221
v 0.048043 0.906963 0.120221
v -0.162292 0.899456 0.122713
v 0.048043 0.899456 0.122713
v -0.162292 0.892385 0.119168
v 0.048043 0.892385 0.119168
v -0.162292 0.750071 0.101556
v 0.048043 0.750071 0.101556
v -0.162292 0.739763 0.100811
v 0.048043 0.739763 0.100811
v -0.162292 0.743309 0.093740
v 0.048043 0.743309 0.093740
v -0.162292 0.750816 0.091248
v 0.048043 0.750816 0.091248
v -0.162292 0.757886 0.094793
v 0.048043 0.757887 0.094793
v -0.162292 0.760379 0.102301
v 0.048043 0.760379 0.102301
v -0.162292 0.756833 0.109372
v 0.048043 0.756833 0.109372
v -0.162292 0.749326 0.111864
v 0.048043 0.749326 0.111864
v -0.162292 0.742255 0.108318
v 0.048043 0.742255 0.108318
v -0.162292 0.598214 0.090582
v 0.048043 0.598214 0.090582
v -0.162292 0.587906 0.089837
v 0.048043 0.587906 0.089837
v -0.162292 0.591452 0.082766
v 0.048043 0.591452 0.082766
v -0.162292 0.598959 0.080274
v 0.048043 0.598959 0.080274
v -0.162292 0.606030 0.083820
v 0.048043 0.606030 0.083820
v -0.162292 0.608522 0.091327
v 0.048043 0.608522 0.091327
v -0.162292 0.604976 0.098398
v 0.048043 0.604977 0.098398
v -0.162292 0.597469 0.100890
v 0.048043 0.597469 0.100890
v -0.162292 0.590399 0.097344
v 0.048043 0.590399 0.097344
v -0.162292 0.442433 0.079324
v 0.048043 0.442433 0.079324
v -0.162292 0.432125 0.078579
v 0.048043 0.432125 0.078579
v -0.162292 0.435671 0.071509
v 0.048043 0.435671 0.071509
v -0.162292 0.443178 0.069016
v 0.048043 0.443178 0.069016
v -0.162292 0.450249 0.072562
v 0.048043 0.450249 0.072562
v -0.162292 0.452741 0.080069
v 0.048043 0.452741 0.080069
v -0.162292 0.449195 0.087139
v 0.048043 0.449196 0.087139
v -0.162292 0.441688 0.089632
v 0.048043 0.441688 0.089632
v -0.162292 0.434618 0.086086
v 0.048043 0.434618 0.086086
v 0.061226 -0.124089 0.038383
v 0.061225 1.205678 0.134481
v 0.080198 -0.124089 0.038383
v 0.080197 1.205678 0.134481
v 0.074641 -0.123122 0.025003
v 0.074641 1.206645 0.121100
v 0.061226 -0.122722 0.019460
v 0.061225 1.207045 0.115558
v 0.047810 -0.123122 0.025003
v 0.047810 1.206645 0.121100
v 0.042253 -0.124089 0.038383
v 0.042253 1.205678 0.134481
v 0.047810 -0.125056 0.051764
v 0.047810 1.204710 0.147862
v 0.061226 -0.125457 0.057306
v 0.061225 1.204310 0.153404
v 0.074641 -0.125056 0.051764
v 0.074641 1.204710 0.147862
v -0.170925 -0.124089 0.038383
v -0.170925 1.205677 0.134481
v -0.151952 -0.124089 0.038383
v -0.151953 1.205677 0.134481
v -0.157509 -0.123122 0.025003
v -0.157510 1.206644 0.121100
v -0.170925 -0.122722 0.019460
v -0.170925 1.207045 0.115558
v -0.184340 -0.123122 0.025003
v -0.184341 1.206644 0.121100
v -0.189897 -0.124089 0.038383
v -0.189898 1.205677 0.134481
v -0.184340 -0.125056 0.051764
v -0.184341 1.204710 0.147862
v -0.170925 -0.125457 0.057306
v -0.170925 1.204310 0.153404
v -0.157509 -0.125056 0.051764
v -0.157510 1.204710 0.147862
v -0.162292 1.053627 0.123493
v 0.048043 1.053627 0.123493
v -0.162292 1.043319 0.122748
v 0.048043 1.043319 0.122748
v -0.162292 1.046865 0.115677
v 0.048043 1.046865 0.115677
v -0.162292 1.054372 0.113185
v 0.048043 1.054372 0.113185
v -0.162292 1.061443 0.116731
v 0.048043 1.061443 0.116731
v -0.162292 1.063935 0.124238
v 0.048043 1.063935 0.124238
v -0.162292 1.060389 0.131309
v 0.048043 1.060390 0.131309
v -0.162292 1.052882 0.133801
v 0.048043 1.052882 0.133801
v -0.162292 1.045811 0.130255
v 0.048043 1.045812 0.130255
vt 0.883227 0.504922
vt 0.883235 0.506384
vt 0.881466 0.505662
vt 0.922111 0.504724
vt 0.922119 0.506186
vt 0.923880 0.505446
vt 0.882188 0.503893
vt 0.883220 0.503459
vt 0.922104 0.503262
vt 0.923140 0.503685
vt 0.880725 0.503900
vt 0.883212 0.501997
vt 0.922096 0.501799
vt 0.924603 0.503677
vt 0.879697 0.504940
vt 0.883205 0.500535
vt 0.922089 0.500337
vt 0.925642 0.504706
vt 0.879704 0.506402
vt 0.883197 0.499073
vt 0.922082 0.498875
vt 0.925649 0.506168
vt 0.880743 0.507431
vt 0.883190 0.497610
vt 0.922074 0.497412
vt 0.924620 0.507208
vt 0.882206 0.507423
vt 0.883183 0.496148
vt 0.922067 0.495950
vt 0.923158 0.507215
vt 0.922126 0.507649
vt 0.883242 0.507846
vt 0.882621 0.441115
vt 0.881159 0.441122
vt 0.881881 0.439353
vt 0.882810 0.479999
vt 0.881347 0.480006
vt 0.882087 0.481768
vt 0.883650 0.440076
vt 0.884084 0.441108
vt 0.884272 0.479992
vt 0.883849 0.481028
vt 0.883643 0.438613
vt 0.885546 0.441101
vt 0.885734 0.479985
vt 0.883856 0.482491
vt 0.882604 0.437584
vt 0.887008 0.441094
vt 0.887197 0.479978
vt 0.882827 0.483530
vt 0.881142 0.437592
vt 0.888471 0.441087
vt 0.888659 0.479971
vt 0.881364 0.483537
vt 0.880113 0.438630
vt 0.889933 0.441079
vt 0.890121 0.479964
vt 0.880325 0.482508
vt 0.880120 0.440093
vt 0.891395 0.441072
vt 0.891584 0.479957
vt 0.880318 0.481045
vt 0.879885 0.480013
vt 0.879697 0.441129
vt 0.895373 0.468594
vt 0.895375 0.470057
vt 0.893609 0.469327
vt 0.934258 0.468554
vt 0.934260 0.470016
vt 0.936024 0.469283
vt 0.894338 0.467561
vt 0.895372 0.467132
vt 0.934257 0.467091
vt 0.935291 0.467519
vt 0.892876 0.467563
vt 0.895370 0.465670
vt 0.934255 0.465629
vt 0.936754 0.467517
vt 0.891843 0.468598
vt 0.895369 0.464207
vt 0.934254 0.464167
vt 0.937789 0.468550
vt 0.891845 0.470060
vt 0.895367 0.462745
vt 0.934252 0.462704
vt 0.937790 0.470012
vt 0.892880 0.471093
vt 0.895366 0.461283
vt 0.934251 0.461242
vt 0.936757 0.471047
vt 0.894342 0.471092
vt 0.895364 0.459820
vt 0.934249 0.459780
vt 0.935295 0.471049
vt 0.934261 0.471478
vt 0.895377 0.471519
vt 0.925643 0.420769
vt 0.925646 0.422231
vt 0.923880 0.421503
vt 0.922103 0.416389
vt 0.883219 0.416472
vt 0.883216 0.415009
vt 0.922100 0.414927
vt 0.879698 0.420866
vt 0.881465 0.421594
vt 0.879701 0.422329
vt 0.924607 0.419737
vt 0.922107 0.417851
vt 0.883222 0.417934
vt 0.880730 0.419830
vt 0.923145 0.419740
vt 0.922110 0.419314
vt 0.883225 0.419396
vt 0.882192 0.419827
vt 0.922113 0.420776
vt 0.883228 0.420859
vt 0.922116 0.422238
vt 0.883231 0.422321
vt 0.923152 0.423270
vt 0.922119 0.423701
vt 0.883234 0.423783
vt 0.882200 0.423357
vt 0.924615 0.423267
vt 0.922122 0.425163
vt 0.883238 0.425246
vt 0.880737 0.423360
vt 0.883212 0.413547
vt 0.922097 0.413464
vt 0.934258 0.474763
vt 0.934260 0.473300
vt 0.936024 0.474034
vt 0.895373 0.474702
vt 0.895375 0.473240
vt 0.893609 0.473968
vt 0.935290 0.475798
vt 0.934255 0.476225
vt 0.895370 0.476165
vt 0.894337 0.475735
vt 0.936752 0.475801
vt 0.934253 0.477687
vt 0.895368 0.477627
vt 0.892875 0.475732
vt 0.937788 0.474768
vt 0.934251 0.479150
vt 0.895366 0.479089
vt 0.891842 0.474697
vt 0.937790 0.473306
vt 0.934248 0.480612
vt 0.895364 0.480552
vt 0.891845 0.473234
vt 0.936758 0.472270
vt 0.934246 0.482074
vt 0.895361 0.482014
vt 0.892880 0.472202
vt 0.935295 0.472268
vt 0.934244 0.483537
vt 0.895359 0.483476
vt 0.894343 0.472204
vt 0.895377 0.471778
vt 0.934262 0.471838
vt 0.922119 0.486720
vt 0.922111 0.485258
vt 0.923880 0.485980
vt 0.883235 0.486918
vt 0.883227 0.485455
vt 0.881466 0.486195
vt 0.923158 0.487749
vt 0.922126 0.488182
vt 0.883242 0.488380
vt 0.882206 0.487957
vt 0.924620 0.487741
vt 0.922134 0.489645
vt 0.883249 0.489842
vt 0.880743 0.487964
vt 0.925649 0.486702
vt 0.922141 0.491107
vt 0.883257 0.491305
vt 0.879704 0.486935
vt 0.925642 0.485240
vt 0.922148 0.492569
vt 0.883264 0.492767
vt 0.879697 0.485473
vt 0.924602 0.484211
vt 0.922156 0.494032
vt 0.883272 0.494229
vt 0.880725 0.484434
vt 0.923140 0.484218
vt 0.922163 0.495494
vt 0.883279 0.495692
vt 0.882188 0.484426
vt 0.883220 0.483993
vt 0.922104 0.483795
vt 0.870749 0.515381
vt 0.873009 0.513095
vt 0.874639 0.516965
vt 0.869794 0.513114
vt 0.869079 0.308468
vt 0.872294 0.308449
vt 0.870663 0.304578
vt 0.870768 0.518596
vt 0.866579 0.513133
vt 0.865864 0.308487
vt 0.866792 0.306209
vt 0.873055 0.520855
vt 0.863365 0.513136
vt 0.862650 0.308491
vt 0.866773 0.302994
vt 0.876269 0.520836
vt 0.860150 0.513155
vt 0.859435 0.308510
vt 0.869033 0.300707
vt 0.878529 0.518550
vt 0.856935 0.513159
vt 0.856220 0.308513
vt 0.872248 0.300688
vt 0.878510 0.515335
vt 0.853720 0.513162
vt 0.853005 0.308516
vt 0.874534 0.302948
vt 0.876223 0.513076
vt 0.875508 0.308430
vt 0.878723 0.308411
vt 0.879438 0.513057
vt 0.874554 0.306162
vt 0.843103 0.513114
vt 0.846317 0.513095
vt 0.844733 0.516985
vt 0.842388 0.308468
vt 0.845603 0.308449
vt 0.843972 0.304578
vt 0.840843 0.515400
vt 0.839888 0.513133
vt 0.839173 0.308487
vt 0.840101 0.306208
vt 0.840862 0.518615
vt 0.836673 0.513136
vt 0.835959 0.308491
vt 0.840082 0.302994
vt 0.843149 0.520875
vt 0.833459 0.513155
vt 0.832744 0.308510
vt 0.842342 0.300707
vt 0.846363 0.520856
vt 0.830244 0.513159
vt 0.829529 0.308513
vt 0.845557 0.300688
vt 0.848623 0.518569
vt 0.827029 0.513162
vt 0.826315 0.308516
vt 0.847843 0.302948
vt 0.848604 0.515354
vt 0.849532 0.513076
vt 0.848818 0.308430
vt 0.852032 0.308411
vt 0.852747 0.513057
vt 0.847863 0.306162
vt 0.923145 0.511653
vt 0.922112 0.510619
vt 0.923877 0.509888
vt 0.922111 0.512081
vt 0.883226 0.512065
vt 0.883227 0.510602
vt 0.882192 0.511636
vt 0.881462 0.509870
vt 0.924608 0.511654
vt 0.922110 0.513544
vt 0.883226 0.513527
vt 0.880730 0.511635
vt 0.925642 0.510620
vt 0.922110 0.515006
vt 0.883225 0.514989
vt 0.879697 0.510601
vt 0.925643 0.509158
vt 0.922109 0.516468
vt 0.883224 0.516452
vt 0.879697 0.509139
vt 0.924609 0.508123
vt 0.922108 0.517931
vt 0.883224 0.517914
vt 0.880731 0.508105
vt 0.923147 0.508123
vt 0.922108 0.519393
vt 0.883223 0.519376
vt 0.882194 0.508106
vt 0.922112 0.509157
vt 0.922107 0.520855
vt 0.883223 0.520839
vt 0.883228 0.509140
vn -1.0000 -0.0000 -0.0000
vn 0.0000 -0.8939 -0.4483
vn 1.0000 0.0000 0.0000
vn 0.0000 -0.3151 -0.9491
vn -0.0000 0.4483 -0.8939
vn -0.0000 0.9491 -0.3151
vn -0.0000 0.8939 0.4483
vn -0.0000 0.3151 0.9491
vn 0.0000 -0.4483 0.8939
vn 0.0000 -0.9491 0.3151
vn 0.0000 -0.3150 -0.9491
vn -0.0000 0.4482 -0.8939
vn -0.0000 -0.9974 -0.0721
vn 0.9239 0.0276 -0.3817
vn -0.0000 0.9974 0.0721
vn 0.3827 0.0666 -0.9215
vn -0.3827 0.0666 -0.9215
vn -0.9239 0.0276 -0.3817
vn -0.9239 -0.0276 0.3817
vn -0.3827 -0.0666 0.9215
vn 0.3827 -0.0666 0.9215
vn 0.9239 -0.0276 0.3817
usemtl Material.001
s 1
f 5/1/1 3/2/1 1/3/1
f 5/1/2 6/4/2 4/5/2 3/2/2
f 6/4/3 2/6/3 4/5/3
f 7/7/1 5/1/1 1/3/1
f 7/8/4 8/9/4 6/4/4 5/1/4
f 8/10/3 2/6/3 6/4/3
f 9/11/1 7/7/1 1/3/1
f 9/12/5 10/13/5 8/9/5 7/8/5
f 10/14/3 2/6/3 8/10/3
f 11/15/1 9/11/1 1/3/1
f 11/16/6 12/17/6 10/13/6 9/12/6
f 12/18/3 2/6/3 10/14/3
f 13/19/1 11/15/1 1/3/1
f 13/20/7 14/21/7 12/17/7 11/16/7
f 14/22/3 2/6/3 12/18/3
f 15/23/1 13/19/1 1/3/1
f 15/24/8 16/25/8 14/21/8 13/20/8
f 16/26/3 2/6/3 14/22/3
f 17/27/1 15/23/1 1/3/1
f 17/28/9 18/29/9 16/25/9 15/24/9
f 18/30/3 2/6/3 16/26/3
f 3/2/1 17/27/1 1/3/1
f 3/2/10 4/5/10 18/31/10 17/32/10
f 4/5/3 2/6/3 18/30/3
f 23/33/1 21/34/1 19/35/1
f 23/33/2 24/36/2 22/37/2 21/34/2
f 24/36/3 20/38/3 22/37/3
f 25/39/1 23/33/1 19/35/1
f 25/40/4 26/41/4 24/36/4 23/33/4
f 26/42/3 20/38/3 24/36/3
f 27/43/1 25/39/1 19/35/1
f 27/44/5 28/45/5 26/41/5 25/40/5
f 28/46/3 20/38/3 26/42/3
f 29/47/1 27/43/1 19/35/1
f 29/48/6 30/49/6 28/45/6 27/44/6
f 30/50/3 20/38/3 28/46/3
f 31/51/1 29/47/1 19/35/1
f 31/52/7 32/53/7 30/49/7 29/48/7
f 32/54/3 20/38/3 30/50/3
f 33/55/1 31/51/1 19/35/1
f 33/56/8 34/57/8 32/53/8 31/52/8
f 34/58/3 20/38/3 32/54/3
f 35/59/1 33/55/1 19/35/1
f 35/60/9 36/61/9 34/57/9 33/56/9
f 36/62/3 20/38/3 34/58/3
f 21/34/1 35/59/1 19/35/1
f 21/34/10 22/37/10 36/63/10 35/64/10
f 22/37/3 20/38/3 36/62/3
f 41/65/1 39/66/1 37/67/1
f 41/65/2 42/68/2 40/69/2 39/66/2
f 42/68/3 38/70/3 40/69/3
f 43/71/1 41/65/1 37/67/1
f 43/72/11 44/73/11 42/68/11 41/65/11
f 44/74/3 38/70/3 42/68/3
f 45/75/1 43/71/1 37/67/1
f 45/76/12 46/77/12 44/73/12 43/72/12
f 46/78/3 38/70/3 44/74/3
f 47/79/1 45/75/1 37/67/1
f 47/80/6 48/81/6 46/77/6 45/76/6
f 48/82/3 38/70/3 46/78/3
f 49/83/1 47/79/1 37/67/1
f 49/84/7 50/85/7 48/81/7 47/80/7
f 50/86/3 38/70/3 48/82/3
f 51/87/1 49/83/1 37/67/1
f 51/88/8 52/89/8 50/85/8 49/84/8
f 52/90/3 38/70/3 50/86/3
f 53/91/1 51/87/1 37/67/1
f 53/92/9 54/93/9 52/89/9 51/88/9
f 54/94/3 38/70/3 52/90/3
f 39/66/1 53/91/1 37/67/1
f 39/66/10 40/69/10 54/95/10 53/96/10
f 40/69/3 38/70/3 54/94/3
f 59/97/1 57/98/1 55/99/1
f 59/100/2 60/101/2 58/102/2 57/103/2
f 60/104/3 56/105/3 58/106/3
f 61/107/1 59/97/1 55/99/1
f 61/108/4 62/109/4 60/101/4 59/100/4
f 62/110/3 56/105/3 60/104/3
f 63/111/1 61/107/1 55/99/1
f 63/112/5 64/113/5 62/109/5 61/108/5
f 64/114/3 56/105/3 62/110/3
f 65/115/1 63/111/1 55/99/1
f 65/115/6 66/116/6 64/113/6 63/112/6
f 66/116/3 56/105/3 64/114/3
f 67/117/1 65/115/1 55/99/1
f 67/117/7 68/118/7 66/116/7 65/115/7
f 68/118/3 56/105/3 66/116/3
f 69/119/1 67/117/1 55/99/1
f 69/120/8 70/121/8 68/118/8 67/117/8
f 70/122/3 56/105/3 68/118/3
f 71/123/1 69/119/1 55/99/1
f 71/124/9 72/125/9 70/121/9 69/120/9
f 72/126/3 56/105/3 70/122/3
f 57/98/1 71/123/1 55/99/1
f 57/103/10 58/102/10 72/127/10 71/128/10
f 58/106/3 56/105/3 72/126/3
f 77/129/1 75/130/1 73/131/1
f 77/129/2 78/132/2 76/133/2 75/130/2
f 78/132/3 74/134/3 76/133/3
f 79/135/1 77/129/1 73/131/1
f 79/136/4 80/137/4 78/132/4 77/129/4
f 80/138/3 74/134/3 78/132/3
f 81/139/1 79/135/1 73/131/1
f 81/140/5 82/141/5 80/137/5 79/136/5
f 82/142/3 74/134/3 80/138/3
f 83/143/1 81/139/1 73/131/1
f 83/144/6 84/145/6 82/141/6 81/140/6
f 84/146/3 74/134/3 82/142/3
f 85/147/1 83/143/1 73/131/1
f 85/148/7 86/149/7 84/145/7 83/144/7
f 86/150/3 74/134/3 84/146/3
f 87/151/1 85/147/1 73/131/1
f 87/152/8 88/153/8 86/149/8 85/148/8
f 88/154/3 74/134/3 86/150/3
f 89/155/1 87/151/1 73/131/1
f 89/156/9 90/157/9 88/153/9 87/152/9
f 90/158/3 74/134/3 88/154/3
f 75/130/1 89/155/1 73/131/1
f 75/130/10 76/133/10 90/159/10 89/160/10
f 76/133/3 74/134/3 90/158/3
f 95/161/1 93/162/1 91/163/1
f 95/161/2 96/164/2 94/165/2 93/162/2
f 96/164/3 92/166/3 94/165/3
f 97/167/1 95/161/1 91/163/1
f 97/168/4 98/169/4 96/164/4 95/161/4
f 98/170/3 92/166/3 96/164/3
f 99/171/1 97/167/1 91/163/1
f 99/172/5 100/173/5 98/169/5 97/168/5
f 100/174/3 92/166/3 98/170/3
f 101/175/1 99/171/1 91/163/1
f 101/176/6 102/177/6 100/173/6 99/172/6
f 102/178/3 92/166/3 100/174/3
f 103/179/1 101/175/1 91/163/1
f 103/180/7 104/181/7 102/177/7 101/176/7
f 104/182/3 92/166/3 102/178/3
f 105/183/1 103/179/1 91/163/1
f 105/184/8 106/185/8 104/181/8 103/180/8
f 106/186/3 92/166/3 104/182/3
f 107/187/1 105/183/1 91/163/1
f 107/188/9 108/189/9 106/185/9 105/184/9
f 108/190/3 92/166/3 106/186/3
f 93/162/1 107/187/1 91/163/1
f 93/162/10 94/165/10 108/191/10 107/192/10
f 94/165/3 92/166/3 108/190/3
f 113/193/13 111/194/13 109/195/13
f 113/196/14 114/197/14 112/198/14 111/194/14
f 114/197/15 110/199/15 112/198/15
f 115/200/13 113/193/13 109/195/13
f 115/201/16 116/202/16 114/197/16 113/196/16
f 116/203/15 110/199/15 114/197/15
f 117/204/13 115/200/13 109/195/13
f 117/205/17 118/206/17 116/202/17 115/201/17
f 118/207/15 110/199/15 116/203/15
f 119/208/13 117/204/13 109/195/13
f 119/209/18 120/210/18 118/206/18 117/205/18
f 120/211/15 110/199/15 118/207/15
f 121/212/13 119/208/13 109/195/13
f 121/213/19 122/214/19 120/210/19 119/209/19
f 122/215/15 110/199/15 120/211/15
f 123/216/13 121/212/13 109/195/13
f 123/217/20 124/218/20 122/214/20 121/213/20
f 124/219/15 110/199/15 122/215/15
f 125/220/13 123/216/13 109/195/13
f 125/220/21 126/221/21 124/222/21 123/223/21
f 126/224/15 110/199/15 124/219/15
f 111/194/13 125/220/13 109/195/13
f 111/194/22 112/198/22 126/221/22 125/220/22
f 112/198/15 110/199/15 126/224/15
f 131/225/13 129/226/13 127/227/13
f 131/225/14 132/228/14 130/229/14 129/226/14
f 132/228/15 128/230/15 130/229/15
f 133/231/13 131/225/13 127/227/13
f 133/232/16 134/233/16 132/228/16 131/225/16
f 134/234/15 128/230/15 132/228/15
f 135/235/13 133/231/13 127/227/13
f 135/236/17 136/237/17 134/233/17 133/232/17
f 136/238/15 128/230/15 134/234/15
f 137/239/13 135/235/13 127/227/13
f 137/240/18 138/241/18 136/237/18 135/236/18
f 138/242/15 128/230/15 136/238/15
f 139/243/13 137/239/13 127/227/13
f 139/244/19 140/245/19 138/241/19 137/240/19
f 140/246/15 128/230/15 138/242/15
f 141/247/13 139/243/13 127/227/13
f 141/248/20 142/249/20 140/245/20 139/244/20
f 142/250/15 128/230/15 140/246/15
f 143/251/13 141/247/13 127/227/13
f 143/252/21 144/253/21 142/254/21 141/255/21
f 144/256/15 128/230/15 142/250/15
f 129/226/13 143/251/13 127/227/13
f 129/226/22 130/229/22 144/253/22 143/252/22
f 130/229/15 128/230/15 144/256/15
f 149/257/1 147/258/1 145/259/1
f 149/260/2 150/261/2 148/262/2 147/258/2
f 150/263/3 146/264/3 148/262/3
f 151/265/1 149/257/1 145/259/1
f 151/266/4 152/267/4 150/261/4 149/260/4
f 152/268/3 146/264/3 150/263/3
f 153/269/1 151/265/1 145/259/1
f 153/270/5 154/271/5 152/267/5 151/266/5
f 154/272/3 146/264/3 152/268/3
f 155/273/1 153/269/1 145/259/1
f 155/274/6 156/275/6 154/271/6 153/270/6
f 156/276/3 146/264/3 154/272/3
f 157/277/1 155/273/1 145/259/1
f 157/278/7 158/279/7 156/275/7 155/274/7
f 158/280/3 146/264/3 156/276/3
f 159/281/1 157/277/1 145/259/1
f 159/282/8 160/283/8 158/279/8 157/278/8
f 160/284/3 146/264/3 158/280/3
f 161/285/1 159/281/1 145/259/1
f 161/286/9 162/287/9 160/283/9 159/282/9
f 162/288/3 146/264/3 160/284/3
f 147/258/1 161/285/1 145/259/1
f 147/258/10 148/262/10 162/288/10 161/285/10
f 148/262/3 146/264/3 162/288/3
